<?xml version="1.0" standalone="no"?>
<!DOCTYPE svg PUBLIC "-//W3C//DTD SVG 20010904//EN"
 "http://www.w3.org/TR/2001/REC-SVG-20010904/DTD/svg10.dtd">
<svg version="1.0" xmlns="http://www.w3.org/2000/svg"
 width="500.000000pt" height="500.000000pt" viewBox="0 0 500.000000 500.000000"
 preserveAspectRatio="xMidYMid meet">

<g transform="translate(0.000000,500.000000) scale(0.100000,-0.100000)"
fill="#000000" stroke="none">
<path d="M2276 4659 c-413 -44 -822 -213 -1141 -472 -91 -74 -259 -243 -328
-330 -152 -192 -290 -444 -361 -657 -230 -691 -115 -1410 317 -2000 142 -193
401 -426 621 -560 509 -307 1136 -389 1714 -224 350 99 672 291 938 558 196
197 301 344 420 591 362 745 258 1636 -266 2295 -90 113 -277 293 -392 378
-445 327 -987 477 -1522 421z m1175 -1354 c139 -12 290 -85 394 -191 145 -147
215 -326 215 -548 0 -231 -77 -417 -235 -564 -134 -125 -292 -183 -500 -185
-151 -1 -250 20 -370 78 -89 43 -201 123 -212 150 -3 9 33 57 92 123 l98 109
65 -48 c124 -93 215 -124 350 -117 109 5 183 37 256 112 53 55 110 163 100
189 -5 15 -40 17 -313 19 l-306 3 -3 133 c-2 121 -1 132 15 133 10 1 23 2 28
4 6 1 141 3 300 4 160 2 285 5 278 7 -7 3 -9 12 -6 20 9 25 -50 126 -105 181
-77 75 -139 98 -267 98 -125 0 -190 -20 -294 -89 -42 -28 -81 -54 -87 -58 -9
-6 -106 97 -182 194 -16 20 -15 22 68 87 71 56 171 106 263 131 71 20 232 40
272 34 11 -2 50 -5 86 -9z m-1589 -42 c25 -63 397 -941 440 -1040 l40 -93 74
0 74 0 0 -289 0 -290 -127 -3 c-190 -4 -169 -22 -178 148 l-7 144 -502 -2
-501 -3 -3 -142 -3 -143 -149 0 -150 0 0 290 0 290 70 0 c69 0 70 0 84 33 7
17 118 277 246 577 128 300 234 548 237 553 2 4 80 7 172 7 l168 0 15 -37z"/>
<path d="M1640 2848 c-44 -105 -251 -620 -269 -674 l-20 -54 324 0 c278 1 323
3 318 15 -3 8 -9 12 -14 9 -5 -3 -6 2 -3 10 5 12 -61 183 -264 684 -14 34 -31
62 -37 62 -7 0 -22 -24 -35 -52z"/>
</g>
</svg>
